<svg width="15" height="15" viewBox="0 0 15 15" fill="none" xmlns="http://www.w3.org/2000/svg">
<path d="M4.94975 7.77815C5.34027 7.38763 5.34027 6.75446 4.94975 6.36394L3.53553 4.94972C3.14501 4.5592 3.14501 3.92604 3.53553 3.53551V3.53551C3.92606 3.14499 4.55922 3.14499 4.94975 3.53551L6.36396 4.94972C6.75449 5.34025 7.38765 5.34025 7.77817 4.94972L9.19239 3.53551C9.58291 3.14499 10.2161 3.14499 10.6066 3.53551V3.53551C10.9971 3.92604 10.9971 4.5592 10.6066 4.94972L9.19239 6.36394C8.80186 6.75446 8.80186 7.38763 9.19239 7.77815L10.6066 9.19237C10.9971 9.58289 10.9971 10.2161 10.6066 10.6066V10.6066C10.2161 10.9971 9.58291 10.9971 9.19239 10.6066L7.77817 9.19237C7.38765 8.80184 6.75449 8.80184 6.36396 9.19237L4.94975 10.6066C4.55922 10.9971 3.92606 10.9971 3.53553 10.6066V10.6066C3.14501 10.2161 3.14501 9.58289 3.53553 9.19237L4.94975 7.77815Z" fill="white"/>
<circle cx="4.07104" cy="4.07104" r="3" fill="white" fill-opacity="0.06"/>
<circle cx="10.071" cy="4.07104" r="3" fill="white" fill-opacity="0.06"/>
<circle cx="4.07104" cy="10.071" r="3" fill="white" fill-opacity="0.06"/>
<circle cx="10.071" cy="10.071" r="3" fill="white" fill-opacity="0.06"/>
<ellipse cx="10.2529" cy="3.88898" rx="0.5" ry="3" transform="rotate(-45 10.2529 3.88898)" fill="#858585"/>
<ellipse cx="3.88906" cy="10.253" rx="0.5" ry="3" transform="rotate(-45 3.88906 10.253)" fill="#858585"/>
<ellipse cx="3.88918" cy="3.88897" rx="3" ry="0.5" transform="rotate(-45 3.88918 3.88897)" fill="#858585"/>
<ellipse cx="10.2532" cy="10.253" rx="3" ry="0.5" transform="rotate(-45 10.2532 10.253)" fill="#858585"/>
</svg>
